<mxfile host="app.diagrams.net" modified="2024-02-06T15:31:34.467Z" agent="Mozilla/5.0 (Windows NT 10.0; Win64; x64) AppleWebKit/537.36 (KHTML, like Gecko) Chrome/121.0.0.0 Safari/537.36" etag="ggC0LN6w1JtM6syze2fX" version="23.1.1" type="device">
  <diagram name="Page-1" id="Z6jynxu88uH2bzuVWWKW">
    <mxGraphModel dx="2577" dy="2052" grid="1" gridSize="10" guides="1" tooltips="1" connect="1" arrows="1" fold="1" page="1" pageScale="1" pageWidth="827" pageHeight="1169" math="0" shadow="0">
      <root>
        <mxCell id="0" />
        <mxCell id="1" parent="0" />
        <mxCell id="k96tjlZMluWmBw-avZZF-1" value="Hop Problem solved using Recursion&lt;br style=&quot;font-size: 30px;&quot;&gt;" style="text;html=1;align=center;verticalAlign=middle;resizable=0;points=[];autosize=1;strokeColor=none;fillColor=none;fontSize=30;" parent="1" vertex="1">
          <mxGeometry x="-495" y="-45" width="520" height="50" as="geometry" />
        </mxCell>
        <mxCell id="k96tjlZMluWmBw-avZZF-2" value="&lt;font style=&quot;font-size: 30px;&quot;&gt;&amp;nbsp;def ._hop(a:List[&#39;int&#39;],f:&#39;int&#39;)-&amp;gt;:&#39;int&#39;&lt;/font&gt;" style="text;html=1;align=center;verticalAlign=middle;resizable=0;points=[];autosize=1;strokeColor=none;fillColor=none;fontSize=30;" parent="1" vertex="1">
          <mxGeometry x="-470" y="-5" width="460" height="50" as="geometry" />
        </mxCell>
        <mxCell id="k96tjlZMluWmBw-avZZF-3" value="" style="rounded=0;whiteSpace=wrap;html=1;" parent="1" vertex="1">
          <mxGeometry x="-180" y="270" width="290" height="390" as="geometry" />
        </mxCell>
        <mxCell id="k96tjlZMluWmBw-avZZF-4" value="" style="endArrow=none;html=1;rounded=0;exitX=0;exitY=0.5;exitDx=0;exitDy=0;entryX=1;entryY=0.5;entryDx=0;entryDy=0;" parent="1" source="k96tjlZMluWmBw-avZZF-3" target="k96tjlZMluWmBw-avZZF-3" edge="1">
          <mxGeometry width="50" height="50" relative="1" as="geometry">
            <mxPoint x="20" y="300" as="sourcePoint" />
            <mxPoint x="70" y="250" as="targetPoint" />
          </mxGeometry>
        </mxCell>
        <mxCell id="k96tjlZMluWmBw-avZZF-7" value="" style="endArrow=none;html=1;rounded=0;exitX=0;exitY=0.75;exitDx=0;exitDy=0;entryX=1;entryY=0.75;entryDx=0;entryDy=0;" parent="1" source="k96tjlZMluWmBw-avZZF-3" target="k96tjlZMluWmBw-avZZF-3" edge="1">
          <mxGeometry width="50" height="50" relative="1" as="geometry">
            <mxPoint x="20" y="300" as="sourcePoint" />
            <mxPoint x="70" y="250" as="targetPoint" />
          </mxGeometry>
        </mxCell>
        <mxCell id="k96tjlZMluWmBw-avZZF-8" value="a = [5,1,0,4,2,3]" style="text;html=1;align=center;verticalAlign=middle;resizable=0;points=[];autosize=1;strokeColor=none;fillColor=none;fontSize=30;" parent="1" vertex="1">
          <mxGeometry x="-215" y="58" width="230" height="50" as="geometry" />
        </mxCell>
        <mxCell id="k96tjlZMluWmBw-avZZF-9" value="0 1 2 &lt;u style=&quot;font-size: 30px;&quot;&gt;3&lt;/u&gt; 4 5" style="text;html=1;align=center;verticalAlign=middle;resizable=0;points=[];autosize=1;strokeColor=none;fillColor=none;fontSize=30;" parent="1" vertex="1">
          <mxGeometry x="-160" y="30" width="170" height="50" as="geometry" />
        </mxCell>
        <mxCell id="k96tjlZMluWmBw-avZZF-10" value="index" style="text;html=1;align=center;verticalAlign=middle;resizable=0;points=[];autosize=1;strokeColor=none;fillColor=none;fontSize=30;" parent="1" vertex="1">
          <mxGeometry x="-250" y="35" width="100" height="50" as="geometry" />
        </mxCell>
        <mxCell id="k96tjlZMluWmBw-avZZF-12" value="" style="endArrow=none;html=1;rounded=0;exitX=0;exitY=0.25;exitDx=0;exitDy=0;entryX=1;entryY=0.25;entryDx=0;entryDy=0;" parent="1" source="k96tjlZMluWmBw-avZZF-3" target="k96tjlZMluWmBw-avZZF-3" edge="1">
          <mxGeometry width="50" height="50" relative="1" as="geometry">
            <mxPoint x="-270" y="200" as="sourcePoint" />
            <mxPoint x="-120" y="200" as="targetPoint" />
          </mxGeometry>
        </mxCell>
        <mxCell id="k96tjlZMluWmBw-avZZF-14" value="&lt;div style=&quot;font-size: 30px;&quot;&gt;&lt;font style=&quot;font-size: 30px;&quot;&gt;Algorithm:&lt;/font&gt;&lt;/div&gt;&lt;ol style=&quot;font-size: 30px;&quot;&gt;&lt;li style=&quot;text-align: left; font-size: 30px;&quot;&gt;&lt;font style=&quot;font-size: 30px;&quot;&gt;Check if the value at index is equal to the index or not, if equal then return 0 else follow the below steps&lt;/font&gt;&lt;/li&gt;&lt;li style=&quot;text-align: left; font-size: 30px;&quot;&gt;&lt;font style=&quot;font-size: 30px;&quot;&gt;To recursively check the index passed in &#39;f&#39; parameter of the function&amp;nbsp;&lt;/font&gt;until the value at index is equal to the index&lt;/li&gt;&lt;li style=&quot;text-align: left; font-size: 30px;&quot;&gt;&lt;font style=&quot;font-size: 30px;&quot;&gt;&amp;nbsp;Swap the element at index found at value of index &#39;f&#39; with the value of index at &#39;f&#39;&lt;/font&gt;&lt;/li&gt;&lt;li style=&quot;text-align: left; font-size: 30px;&quot;&gt;&lt;font style=&quot;font-size: 30px;&quot;&gt;count the hop by recursively calling the function&amp;nbsp; ( 1 + _hop(a,f) )&lt;/font&gt;&lt;/li&gt;&lt;li style=&quot;text-align: left; font-size: 30px;&quot;&gt;&lt;font style=&quot;font-size: 30px;&quot;&gt;Again swap the elements to bring back the list same as before swaping&lt;/font&gt;&lt;/li&gt;&lt;/ol&gt;" style="text;html=1;align=center;verticalAlign=middle;resizable=0;points=[];autosize=1;strokeColor=none;fillColor=none;fontSize=30;" parent="1" vertex="1">
          <mxGeometry x="50" y="-135" width="1550" height="290" as="geometry" />
        </mxCell>
        <mxCell id="k96tjlZMluWmBw-avZZF-17" value="&lt;font style=&quot;font-size: 30px;&quot;&gt;For Example::&lt;br style=&quot;font-size: 30px;&quot;&gt;&lt;br style=&quot;font-size: 30px;&quot;&gt;_hop(a,f=3)&lt;br style=&quot;font-size: 30px;&quot;&gt;&lt;br style=&quot;font-size: 30px;&quot;&gt;a = [5,1,0,4,2,3]&lt;/font&gt;" style="text;html=1;align=center;verticalAlign=middle;resizable=0;points=[];autosize=1;strokeColor=none;fillColor=none;strokeWidth=1;fontSize=30;" parent="1" vertex="1">
          <mxGeometry x="-685" y="148" width="230" height="190" as="geometry" />
        </mxCell>
        <mxCell id="k96tjlZMluWmBw-avZZF-18" value="hop = 1 + _hop(a,3)&#xa;return(hop)&#xa;" style="text;align=left;verticalAlign=middle;resizable=0;points=[];autosize=1;strokeColor=none;fillColor=none;fontSize=30;" parent="1" vertex="1">
          <mxGeometry x="-703" y="665" width="290" height="90" as="geometry" />
        </mxCell>
        <mxCell id="k96tjlZMluWmBw-avZZF-23" value="" style="rounded=0;whiteSpace=wrap;html=1;" parent="1" vertex="1">
          <mxGeometry x="-180" y="660" width="290" height="90" as="geometry" />
        </mxCell>
        <mxCell id="k96tjlZMluWmBw-avZZF-27" value="" style="endArrow=classic;html=1;rounded=0;edgeStyle=orthogonalEdgeStyle;exitX=0;exitY=0.75;exitDx=0;exitDy=0;curved=1;" parent="1" source="k96tjlZMluWmBw-avZZF-23" edge="1">
          <mxGeometry width="50" height="50" relative="1" as="geometry">
            <mxPoint x="-263" y="797" as="sourcePoint" />
            <mxPoint x="-180" y="650" as="targetPoint" />
            <Array as="points">
              <mxPoint x="-230" y="728" />
              <mxPoint x="-230" y="650" />
            </Array>
          </mxGeometry>
        </mxCell>
        <mxCell id="k96tjlZMluWmBw-avZZF-28" value="&lt;font style=&quot;font-size: 42px;&quot;&gt;0 1 2 3 4 5&lt;/font&gt;" style="text;html=1;align=center;verticalAlign=middle;resizable=0;points=[];autosize=1;strokeColor=none;fillColor=none;strokeWidth=8;" parent="1" vertex="1">
          <mxGeometry x="-145" y="760" width="220" height="60" as="geometry" />
        </mxCell>
        <mxCell id="k96tjlZMluWmBw-avZZF-29" value="" style="endArrow=classic;html=1;rounded=0;edgeStyle=orthogonalEdgeStyle;exitX=0;exitY=0.75;exitDx=0;exitDy=0;curved=1;" parent="1" edge="1">
          <mxGeometry width="50" height="50" relative="1" as="geometry">
            <mxPoint x="-180" y="624" as="sourcePoint" />
            <mxPoint x="-180" y="546" as="targetPoint" />
            <Array as="points">
              <mxPoint x="-230" y="624" />
              <mxPoint x="-230" y="546" />
            </Array>
          </mxGeometry>
        </mxCell>
        <mxCell id="k96tjlZMluWmBw-avZZF-30" value="" style="endArrow=classic;html=1;rounded=0;edgeStyle=orthogonalEdgeStyle;exitX=0.004;exitY=0.637;exitDx=0;exitDy=0;curved=1;exitPerimeter=0;entryX=0.009;entryY=0.178;entryDx=0;entryDy=0;entryPerimeter=0;" parent="1" target="k96tjlZMluWmBw-avZZF-3" edge="1">
          <mxGeometry width="50" height="50" relative="1" as="geometry">
            <mxPoint x="-179.99999999999991" y="418.42999999999995" as="sourcePoint" />
            <mxPoint x="-186.16" y="340" as="targetPoint" />
            <Array as="points">
              <mxPoint x="-230" y="418" />
              <mxPoint x="-230" y="339" />
            </Array>
          </mxGeometry>
        </mxCell>
        <mxCell id="k96tjlZMluWmBw-avZZF-31" value="" style="endArrow=classic;html=1;rounded=0;edgeStyle=orthogonalEdgeStyle;exitX=0.002;exitY=0.658;exitDx=0;exitDy=0;curved=1;exitPerimeter=0;entryX=0.011;entryY=0.462;entryDx=0;entryDy=0;entryPerimeter=0;" parent="1" source="k96tjlZMluWmBw-avZZF-3" target="k96tjlZMluWmBw-avZZF-3" edge="1">
          <mxGeometry width="50" height="50" relative="1" as="geometry">
            <mxPoint x="-169" y="528" as="sourcePoint" />
            <mxPoint x="-175" y="450" as="targetPoint" />
            <Array as="points">
              <mxPoint x="-179" y="528" />
              <mxPoint x="-230" y="528" />
              <mxPoint x="-230" y="450" />
            </Array>
          </mxGeometry>
        </mxCell>
        <mxCell id="k96tjlZMluWmBw-avZZF-32" value="&lt;span style=&quot;font-size: 40px;&quot;&gt;5 1 0 &lt;u&gt;4&lt;/u&gt; &lt;u&gt;2&lt;/u&gt; 3&lt;/span&gt;" style="text;html=1;align=center;verticalAlign=middle;resizable=0;points=[];autosize=1;strokeColor=none;fillColor=none;" parent="1" vertex="1">
          <mxGeometry x="-135" y="680" width="210" height="60" as="geometry" />
        </mxCell>
        <mxCell id="k96tjlZMluWmBw-avZZF-34" value="&lt;span style=&quot;font-size: 40px;&quot;&gt;5 1 &lt;u&gt;0&lt;/u&gt; &lt;u&gt;2&lt;/u&gt; 4 3&lt;/span&gt;" style="text;html=1;align=center;verticalAlign=middle;resizable=0;points=[];autosize=1;strokeColor=none;fillColor=none;" parent="1" vertex="1">
          <mxGeometry x="-140" y="585" width="210" height="60" as="geometry" />
        </mxCell>
        <mxCell id="k96tjlZMluWmBw-avZZF-35" value="&lt;span style=&quot;font-size: 40px;&quot;&gt;&lt;u&gt;5&lt;/u&gt; 1 2 &lt;u&gt;0&lt;/u&gt;&amp;nbsp;4&amp;nbsp;3&lt;/span&gt;" style="text;html=1;align=center;verticalAlign=middle;resizable=0;points=[];autosize=1;strokeColor=none;fillColor=none;" parent="1" vertex="1">
          <mxGeometry x="-135" y="490" width="210" height="60" as="geometry" />
        </mxCell>
        <mxCell id="k96tjlZMluWmBw-avZZF-36" value="&lt;span style=&quot;font-size: 40px;&quot;&gt;0 1 2 &lt;u&gt;5&lt;/u&gt; 4 &lt;u&gt;3&lt;/u&gt;&lt;/span&gt;" style="text;html=1;align=center;verticalAlign=middle;resizable=0;points=[];autosize=1;strokeColor=none;fillColor=none;" parent="1" vertex="1">
          <mxGeometry x="-140" y="390" width="210" height="60" as="geometry" />
        </mxCell>
        <mxCell id="k96tjlZMluWmBw-avZZF-38" value="&lt;span style=&quot;font-size: 40px;&quot;&gt;0 1 2 &lt;u&gt;3&lt;/u&gt;&amp;nbsp;4 &lt;u&gt;5&lt;/u&gt;&lt;/span&gt;" style="text;html=1;align=center;verticalAlign=middle;resizable=0;points=[];autosize=1;strokeColor=none;fillColor=none;" parent="1" vertex="1">
          <mxGeometry x="-135" y="300" width="210" height="60" as="geometry" />
        </mxCell>
        <mxCell id="k96tjlZMluWmBw-avZZF-41" value="" style="endArrow=classic;html=1;rounded=0;edgeStyle=orthogonalEdgeStyle;exitX=1.002;exitY=0.132;exitDx=0;exitDy=0;curved=1;exitPerimeter=0;entryX=1.009;entryY=0.381;entryDx=0;entryDy=0;entryPerimeter=0;" parent="1" source="k96tjlZMluWmBw-avZZF-3" target="k96tjlZMluWmBw-avZZF-3" edge="1">
          <mxGeometry width="50" height="50" relative="1" as="geometry">
            <mxPoint x="190.01000000000002" y="340" as="sourcePoint" />
            <mxPoint x="196.1700000000001" y="418.42999999999995" as="targetPoint" />
            <Array as="points">
              <mxPoint x="160" y="322" />
              <mxPoint x="160" y="419" />
            </Array>
          </mxGeometry>
        </mxCell>
        <mxCell id="k96tjlZMluWmBw-avZZF-42" value="" style="endArrow=classic;html=1;rounded=0;edgeStyle=orthogonalEdgeStyle;exitX=1.002;exitY=0.132;exitDx=0;exitDy=0;curved=1;exitPerimeter=0;entryX=1.009;entryY=0.381;entryDx=0;entryDy=0;entryPerimeter=0;" parent="1" edge="1">
          <mxGeometry width="50" height="50" relative="1" as="geometry">
            <mxPoint x="110" y="440" as="sourcePoint" />
            <mxPoint x="112" y="538" as="targetPoint" />
            <Array as="points">
              <mxPoint x="159" y="441" />
              <mxPoint x="159" y="538" />
            </Array>
          </mxGeometry>
        </mxCell>
        <mxCell id="k96tjlZMluWmBw-avZZF-43" value="" style="endArrow=classic;html=1;rounded=0;edgeStyle=orthogonalEdgeStyle;exitX=1.002;exitY=0.132;exitDx=0;exitDy=0;curved=1;exitPerimeter=0;entryX=1.009;entryY=0.381;entryDx=0;entryDy=0;entryPerimeter=0;" parent="1" edge="1">
          <mxGeometry width="50" height="50" relative="1" as="geometry">
            <mxPoint x="110" y="550" as="sourcePoint" />
            <mxPoint x="112" y="648" as="targetPoint" />
            <Array as="points">
              <mxPoint x="159" y="551" />
              <mxPoint x="159" y="648" />
            </Array>
          </mxGeometry>
        </mxCell>
        <mxCell id="k96tjlZMluWmBw-avZZF-44" value="" style="endArrow=classic;html=1;rounded=0;edgeStyle=orthogonalEdgeStyle;exitX=1.002;exitY=0.132;exitDx=0;exitDy=0;curved=1;exitPerimeter=0;entryX=1.009;entryY=0.381;entryDx=0;entryDy=0;entryPerimeter=0;" parent="1" edge="1">
          <mxGeometry width="50" height="50" relative="1" as="geometry">
            <mxPoint x="110" y="652" as="sourcePoint" />
            <mxPoint x="112" y="750" as="targetPoint" />
            <Array as="points">
              <mxPoint x="159" y="653" />
              <mxPoint x="159" y="750" />
            </Array>
          </mxGeometry>
        </mxCell>
        <mxCell id="k96tjlZMluWmBw-avZZF-46" value="&lt;font style=&quot;font-size: 40px;&quot;&gt;0&lt;/font&gt;" style="text;html=1;align=center;verticalAlign=middle;resizable=0;points=[];autosize=1;strokeColor=none;fillColor=none;" parent="1" vertex="1">
          <mxGeometry x="165" y="283" width="50" height="60" as="geometry" />
        </mxCell>
        <mxCell id="k96tjlZMluWmBw-avZZF-47" value="&lt;font style=&quot;font-size: 40px;&quot;&gt;1&lt;/font&gt;" style="text;html=1;align=center;verticalAlign=middle;resizable=0;points=[];autosize=1;strokeColor=none;fillColor=none;" parent="1" vertex="1">
          <mxGeometry x="165" y="393" width="50" height="60" as="geometry" />
        </mxCell>
        <mxCell id="k96tjlZMluWmBw-avZZF-48" value="&lt;font style=&quot;font-size: 40px;&quot;&gt;1 + 1&lt;/font&gt;" style="text;html=1;align=center;verticalAlign=middle;resizable=0;points=[];autosize=1;strokeColor=none;fillColor=none;" parent="1" vertex="1">
          <mxGeometry x="175" y="483" width="110" height="60" as="geometry" />
        </mxCell>
        <mxCell id="k96tjlZMluWmBw-avZZF-49" value="&lt;font style=&quot;font-size: 40px;&quot;&gt;1 + 1 + 1&lt;/font&gt;" style="text;html=1;align=center;verticalAlign=middle;resizable=0;points=[];autosize=1;strokeColor=none;fillColor=none;" parent="1" vertex="1">
          <mxGeometry x="175" y="573" width="180" height="60" as="geometry" />
        </mxCell>
        <mxCell id="k96tjlZMluWmBw-avZZF-50" value="&lt;font style=&quot;font-size: 40px;&quot;&gt;1 + 1 + 1 + 1&lt;/font&gt;" style="text;html=1;align=center;verticalAlign=middle;resizable=0;points=[];autosize=1;strokeColor=none;fillColor=none;" parent="1" vertex="1">
          <mxGeometry x="164" y="670" width="250" height="60" as="geometry" />
        </mxCell>
        <mxCell id="k96tjlZMluWmBw-avZZF-51" value="&lt;span style=&quot;font-size: 30px;&quot;&gt;Top of Stack&lt;/span&gt;" style="text;html=1;align=center;verticalAlign=middle;resizable=0;points=[];autosize=1;strokeColor=none;fillColor=none;" parent="1" vertex="1">
          <mxGeometry x="-295" y="210" width="190" height="50" as="geometry" />
        </mxCell>
        <mxCell id="k96tjlZMluWmBw-avZZF-52" value="&lt;font style=&quot;font-size: 1px;&quot;&gt;Text&lt;/font&gt;" style="text;html=1;align=center;verticalAlign=middle;resizable=0;points=[];autosize=1;strokeColor=none;fillColor=none;" parent="1" vertex="1">
          <mxGeometry x="-335" y="688" width="30" height="30" as="geometry" />
        </mxCell>
        <mxCell id="k96tjlZMluWmBw-avZZF-54" value="index" style="text;html=1;align=center;verticalAlign=middle;resizable=0;points=[];autosize=1;strokeColor=none;fillColor=none;fontSize=30;" parent="1" vertex="1">
          <mxGeometry x="-250" y="765" width="100" height="50" as="geometry" />
        </mxCell>
        <mxCell id="k96tjlZMluWmBw-avZZF-55" value="&lt;font style=&quot;font-size: 40px;&quot;&gt;(1)&lt;/font&gt;" style="text;html=1;align=center;verticalAlign=middle;resizable=0;points=[];autosize=1;strokeColor=none;fillColor=none;" parent="1" vertex="1">
          <mxGeometry x="435" y="395" width="70" height="60" as="geometry" />
        </mxCell>
        <mxCell id="k96tjlZMluWmBw-avZZF-56" value="&lt;font style=&quot;font-size: 40px;&quot;&gt;(0)&lt;/font&gt;" style="text;html=1;align=center;verticalAlign=middle;resizable=0;points=[];autosize=1;strokeColor=none;fillColor=none;" parent="1" vertex="1">
          <mxGeometry x="430" y="300" width="70" height="60" as="geometry" />
        </mxCell>
        <mxCell id="k96tjlZMluWmBw-avZZF-57" value="&lt;font style=&quot;font-size: 40px;&quot;&gt;(2)&lt;/font&gt;" style="text;html=1;align=center;verticalAlign=middle;resizable=0;points=[];autosize=1;strokeColor=none;fillColor=none;" parent="1" vertex="1">
          <mxGeometry x="435" y="500" width="70" height="60" as="geometry" />
        </mxCell>
        <mxCell id="k96tjlZMluWmBw-avZZF-58" value="&lt;font style=&quot;font-size: 40px;&quot;&gt;(3)&lt;/font&gt;" style="text;html=1;align=center;verticalAlign=middle;resizable=0;points=[];autosize=1;strokeColor=none;fillColor=none;" parent="1" vertex="1">
          <mxGeometry x="435" y="590" width="70" height="60" as="geometry" />
        </mxCell>
        <mxCell id="k96tjlZMluWmBw-avZZF-59" value="&lt;font style=&quot;font-size: 40px;&quot;&gt;(4)&lt;/font&gt;" style="text;html=1;align=center;verticalAlign=middle;resizable=0;points=[];autosize=1;strokeColor=none;fillColor=none;" parent="1" vertex="1">
          <mxGeometry x="435" y="680" width="70" height="60" as="geometry" />
        </mxCell>
        <mxCell id="k96tjlZMluWmBw-avZZF-60" value="&lt;font style=&quot;font-size: 40px;&quot;&gt;HOP&lt;/font&gt;" style="text;html=1;align=center;verticalAlign=middle;resizable=0;points=[];autosize=1;strokeColor=none;fillColor=none;" parent="1" vertex="1">
          <mxGeometry x="395" y="223" width="110" height="60" as="geometry" />
        </mxCell>
        <mxCell id="k96tjlZMluWmBw-avZZF-61" value="&lt;font style=&quot;font-size: 40px;&quot;&gt;POP&lt;/font&gt;" style="text;html=1;align=center;verticalAlign=middle;resizable=0;points=[];autosize=1;strokeColor=none;fillColor=none;" parent="1" vertex="1">
          <mxGeometry x="230" y="353" width="110" height="60" as="geometry" />
        </mxCell>
        <mxCell id="k96tjlZMluWmBw-avZZF-62" value="&lt;font style=&quot;font-size: 40px;&quot;&gt;PUSH&lt;/font&gt;" style="text;html=1;align=center;verticalAlign=middle;resizable=0;points=[];autosize=1;strokeColor=none;fillColor=none;" parent="1" vertex="1">
          <mxGeometry x="-380" y="413" width="130" height="60" as="geometry" />
        </mxCell>
      </root>
    </mxGraphModel>
  </diagram>
</mxfile>
